# xmcd CD database file generated by Grip 2.95
# 
# Track frame offsets:
#       150
#       14475
#       35850
#       52650
#       70200
#       93150
#       111375
#       128550
#       144450
#       183300
#       195450
#       211575
# 
# Disc length: 3027 seconds
# 
# Revision: 3
# Processed by: cddbd v1.4b41PL1 Copyright (c) Steve Scherf et al.
# Submitted via: Grip 2.95
# 
DISCID=a00bd10c
DTITLE=Flap - The Boat To Lisdoonvarna
DYEAR=1900
DGENRE=
TTITLE0=The Pipers' Club/Through The Night
TTITLE1=The Worksong
TTITLE2=Over The Hills
TTITLE3=The Fish In The Boat/Linsesupp' In Dingle
TTITLE4=The Tarbolton Set
TTITLE5=John Of Dreams
TTITLE6=Humours Of Kilkenny/The Dandy Reel/Michael Dwyer's Favourite
TTITLE7=Frost Pattern/Relations
TTITLE8=Lord Galway's Lamentation
TTITLE9=Foxy Devil
TTITLE10=Wolf Hates Jazz/The Rocks Of Ploumanac'h
TTITLE11=A New Year Is Coming
EXTD=
EXTT0=
EXTT1=
EXTT2=
EXTT3=
EXTT4=
EXTT5=
EXTT6=
EXTT7=
EXTT8=
EXTT9=
EXTT10=
EXTT11=
PLAYORDER=
